<svg xmlns="http://www.w3.org/2000/svg" viewBox="0 0 100 100" fill="none">
  <!-- Mountain peaks with emerald to teal gradient -->
  <path d="M50 20 L65 37.5 L72.5 30 L80 42.5 L50 20 Z" fill="url(#m1)"/>
  <path d="M50 20 L35 37.5 L27.5 30 L20 42.5 L50 20 Z" fill="url(#m2)"/>
  
  <!-- Flowing waves with cyan/blue gradients -->
  <path d="M15 45 Q25 42.5 35 45 T55 45 Q65 42.5 75 45 T85 45 L85 65 Q75 62.5 65 65 T45 65 Q35 62.5 25 65 T15 65 Z" fill="url(#w1)" opacity="0.85"/>
  <path d="M17.5 50 Q27.5 47.5 37.5 50 T57.5 50 Q67.5 47.5 77.5 50 T87.5 50 L87.5 70 Q77.5 67.5 67.5 70 T47.5 70 Q37.5 67.5 27.5 70 T17.5 70 Z" fill="url(#w2)" opacity="0.7"/>
  
  <!-- Central circle -->
  <circle cx="50" cy="57.5" r="9" fill="url(#c)"/>
  
  <defs>
    <linearGradient id="m1" x1="0%" y1="0%" x2="100%" y2="100%">
      <stop offset="0%" style="stop-color:#10b981;stop-opacity:1" />
      <stop offset="100%" style="stop-color:#0d9488;stop-opacity:1" />
    </linearGradient>
    <linearGradient id="m2" x1="0%" y1="0%" x2="100%" y2="100%">
      <stop offset="0%" style="stop-color:#0d9488;stop-opacity:1" />
      <stop offset="100%" style="stop-color:#14b8a6;stop-opacity:1" />
    </linearGradient>
    <linearGradient id="w1" x1="0%" y1="0%" x2="100%" y2="100%">
      <stop offset="0%" style="stop-color:#22d3ee;stop-opacity:1" />
      <stop offset="100%" style="stop-color:#06b6d4;stop-opacity:1" />
    </linearGradient>
    <linearGradient id="w2" x1="0%" y1="0%" x2="100%" y2="100%">
      <stop offset="0%" style="stop-color:#0891b2;stop-opacity:1" />
      <stop offset="100%" style="stop-color:#0284c7;stop-opacity:1" />
    </linearGradient>
    <linearGradient id="c" x1="0%" y1="0%" x2="100%" y2="100%">
      <stop offset="0%" style="stop-color:#67e8f9;stop-opacity:1" />
      <stop offset="100%" style="stop-color:#22d3ee;stop-opacity:1" />
    </linearGradient>
  </defs>
</svg>
